<svg xmlns="http://www.w3.org/2000/svg" viewBox="0 0 1600 1100" fill="none"><rect width="1600" height="1100" fill="#0A0A0B"/><rect x="74" y="68" width="1452" height="964" rx="28" fill="#121216" stroke="#3A3A42"/><rect x="104" y="100" width="1392" height="82" rx="18" fill="#18181D"/><circle cx="138" cy="141" r="8" fill="#8E8E98"/><circle cx="166" cy="141" r="8" fill="#56565F"/><circle cx="194" cy="141" r="8" fill="#3B3B43"/><text x="1128" y="148" fill="#A1A1AA" font-family="Arial, sans-serif" font-size="18" letter-spacing="3">CALENDAR / APP</text><rect x="104" y="208" width="1392" height="128" rx="18" fill="#F5F5F5"/><text x="136" y="260" fill="#0A0A0B" font-family="Arial, sans-serif" font-size="18" letter-spacing="4">SELECT A YEAR</text><text x="136" y="306" fill="#0A0A0B" font-family="Arial, sans-serif" font-size="56" font-weight="700">2026</text><text x="1350" y="300" fill="#71717A" font-family="Arial, sans-serif" font-size="17" text-anchor="end">WEEK SELECTOR ↗</text><g stroke="#3A3A42"><path d="M104 390H1496"/><path d="M104 558H1496"/><path d="M104 726H1496"/><path d="M104 894H1496"/></g><g fill="#D6D6DC"><rect x="136" y="426" width="270" height="98" rx="12"/><rect x="430" y="426" width="270" height="98" rx="12"/><rect x="724" y="426" width="270" height="98" rx="12"/><rect x="1018" y="426" width="270" height="98" rx="12"/></g><g fill="#0A0A0B" font-family="Arial, sans-serif"><text x="156" y="464" font-size="15" letter-spacing="2">JANUARY</text><text x="156" y="503" font-size="32" font-weight="700">W 01 — 05</text><text x="450" y="464" font-size="15" letter-spacing="2">FEBRUARY</text><text x="450" y="503" font-size="32" font-weight="700">W 06 — 09</text><text x="744" y="464" font-size="15" letter-spacing="2">MARCH</text><text x="744" y="503" font-size="32" font-weight="700">W 10 — 13</text><text x="1038" y="464" font-size="15" letter-spacing="2">APRIL</text><text x="1038" y="503" font-size="32" font-weight="700">W 14 — 17</text></g><g opacity=".9"><rect x="136" y="594" width="1360" height="106" rx="14" fill="#1B1B20" stroke="#2A2A31"/><rect x="136" y="762" width="860" height="106" rx="14" fill="#1B1B20" stroke="#2A2A31"/><rect x="1018" y="762" width="478" height="106" rx="14" fill="#1B1B20" stroke="#2A2A31"/></g><text x="156" y="636" fill="#71717A" font-family="Arial, sans-serif" font-size="13" letter-spacing="3">REACT / JAVASCRIPT</text><text x="156" y="676" fill="#F5F5F5" font-family="Arial, sans-serif" font-size="24">Structured calendar experience</text><text x="156" y="804" fill="#71717A" font-family="Arial, sans-serif" font-size="13" letter-spacing="3">INTERACTION</text><text x="156" y="844" fill="#F5F5F5" font-family="Arial, sans-serif" font-size="24">Simple. Fast. Understandable.</text><text x="1040" y="804" fill="#71717A" font-family="Arial, sans-serif" font-size="13" letter-spacing="3">STATUS</text><text x="1040" y="844" fill="#F5F5F5" font-family="Arial, sans-serif" font-size="24">BUILDING ↗</text></svg>