<svg xmlns="http://www.w3.org/2000/svg" viewBox="0 0 1600 1100" fill="none"><rect width="1600" height="1100" fill="#F4F4F6"/><rect x="70" y="70" width="1460" height="960" rx="24" fill="#FFFFFF" stroke="#D9D9DE"/><rect x="108" y="108" width="1384" height="78" rx="16" fill="#0A0A0B"/><text x="142" y="156" fill="#FFFFFF" font-family="Arial, sans-serif" font-size="16" letter-spacing="4">INVENTORY / INTERNAL SYSTEM</text><text x="1450" y="156" fill="#A1A1AA" font-family="Arial, sans-serif" font-size="14" text-anchor="end">OPERATIONS</text><rect x="108" y="224" width="420" height="700" rx="18" fill="#F3F3F5"/><text x="142" y="270" fill="#71717A" font-family="Arial, sans-serif" font-size="13" letter-spacing="3">OVERVIEW</text><text x="142" y="332" fill="#0A0A0B" font-family="Arial, sans-serif" font-size="54" font-weight="700">1,284</text><text x="142" y="362" fill="#71717A" font-family="Arial, sans-serif" font-size="14">assets tracked</text><g stroke="#D1D1D7"><path d="M142 420H492"/><path d="M142 510H492"/><path d="M142 600H492"/><path d="M142 690H492"/><path d="M142 780H492"/></g><g fill="#0A0A0B" font-family="Arial, sans-serif"><text x="142" y="465" font-size="16">Available</text><text x="492" y="465" font-size="16" text-anchor="end">842</text><text x="142" y="555" font-size="16">Assigned</text><text x="492" y="555" font-size="16" text-anchor="end">327</text><text x="142" y="645" font-size="16">Maintenance</text><text x="492" y="645" font-size="16" text-anchor="end">115</text><text x="142" y="735" font-size="16">Locations</text><text x="492" y="735" font-size="16" text-anchor="end">14</text></g><rect x="590" y="224" width="902" height="700" rx="18" fill="#0D0D10"/><text x="628" y="270" fill="#71717A" font-family="Arial, sans-serif" font-size="13" letter-spacing="3">LIVE TABLE</text><g stroke="#303037"><path d="M628 314H1452"/><path d="M628 432H1452"/><path d="M628 550H1452"/><path d="M628 668H1452"/><path d="M628 786H1452"/></g><g fill="#A1A1AA" font-family="Arial, sans-serif" font-size="14"><text x="628" y="350">ASSET</text><text x="895" y="350">STATUS</text><text x="1090" y="350">LOCATION</text><text x="1290" y="350">UPDATE</text></g><g fill="#F5F5F5" font-family="Arial, sans-serif" font-size="16"><text x="628" y="394">PC-0437</text><text x="895" y="394">ACTIVE</text><text x="1090" y="394">CAUCA</text><text x="1290" y="394">TODAY</text><text x="628" y="512">PR-0182</text><text x="895" y="512">SERVICE</text><text x="1090" y="512">POPAYÁN</text><text x="1290" y="512">2 H AGO</text><text x="628" y="630">NB-0914</text><text x="895" y="630">ASSIGNED</text><text x="1090" y="630">OFFICE</text><text x="1290" y="630">YESTERDAY</text><text x="628" y="748">SW-0038</text><text x="895" y="748">ACTIVE</text><text x="1090" y="748">POPAYÁN</text><text x="1290" y="748">SEP 14</text></g><rect x="628" y="832" width="824" height="50" rx="10" fill="#FFFFFF"/><text x="650" y="864" fill="#0A0A0B" font-family="Arial, sans-serif" font-size="14">Search, filter, inspect</text></svg>